<svg width="26" height="20" viewBox="0 0 26 20" fill="none" xmlns="http://www.w3.org/2000/svg">
<path d="M21.869 2.32862C20.2225 1.59749 18.4568 1.05883 16.6107 0.750318C16.5771 0.744363 16.5435 0.759243 16.5262 0.789004C16.2991 1.17985 16.0476 1.68975 15.8715 2.09052C13.8859 1.80285 11.9104 1.80285 9.96556 2.09052C9.78938 1.68084 9.52872 1.17985 9.30062 0.789004C9.2833 0.760236 9.24972 0.745356 9.2161 0.750318C7.37101 1.05785 5.60536 1.59651 3.95781 2.32862C3.94355 2.33457 3.93132 2.3445 3.92321 2.35739C0.574137 7.19943 -0.343315 11.9225 0.106756 16.5869C0.108793 16.6097 0.12203 16.6316 0.140359 16.6454C2.34998 18.2158 4.49038 19.1691 6.59103 19.8011C6.62465 19.811 6.66027 19.7991 6.68166 19.7723C7.17857 19.1156 7.62153 18.4232 8.00131 17.695C8.02372 17.6524 8.00233 17.6018 7.95652 17.5849C7.25393 17.327 6.58492 17.0125 5.94138 16.6554C5.89047 16.6266 5.8864 16.5562 5.93323 16.5224C6.06865 16.4242 6.20411 16.322 6.33342 16.2189C6.35682 16.2 6.38942 16.196 6.41693 16.208C10.6447 18.0759 15.2218 18.0759 19.3997 16.208C19.4272 16.1951 19.4598 16.199 19.4842 16.2179C19.6136 16.321 19.749 16.4242 19.8854 16.5224C19.9323 16.5562 19.9292 16.6266 19.8783 16.6554C19.2348 17.0194 18.5658 17.327 17.8622 17.5839C17.8163 17.6008 17.796 17.6524 17.8184 17.695C18.2063 18.4221 18.6493 19.1146 19.137 19.7713C19.1574 19.7991 19.194 19.811 19.2276 19.8011C21.3385 19.1691 23.4789 18.2158 25.6885 16.6454C25.7078 16.6316 25.7201 16.6107 25.7221 16.5879C26.2607 11.1953 24.8199 6.51098 21.9026 2.35837C21.8955 2.3445 21.8833 2.33457 21.869 2.32862ZM8.63266 13.7468C7.35981 13.7468 6.31101 12.6159 6.31101 11.227C6.31101 9.8382 7.33947 8.70732 8.63266 8.70732C9.93601 8.70732 10.9747 9.84813 10.9543 11.227C10.9543 12.6159 9.92582 13.7468 8.63266 13.7468ZM17.2166 13.7468C15.9438 13.7468 14.895 12.6159 14.895 11.227C14.895 9.8382 15.9234 8.70732 17.2166 8.70732C18.52 8.70732 19.5586 9.84813 19.5382 11.227C19.5382 12.6159 18.52 13.7468 17.2166 13.7468Z" fill="white"/>
</svg>
