<svg width="743" height="725" viewBox="0 0 743 725" fill="none" xmlns="http://www.w3.org/2000/svg">
<path opacity="0.05" d="M397.277 662.981C397.277 662.981 402.025 652.669 397.277 628.287C375.634 517.154 164.083 622.374 122.13 546.562C80.1765 470.749 566.183 527.408 670.593 442.381C837.073 306.809 131.478 439.394 59.9684 353.043C-22.1821 253.842 748.078 346.104 742.103 235.345C735.922 120.782 83.8692 213.205 83.8692 130.516C83.8692 47.827 387.843 157.801 398.53 42.9119C399.576 31.6696 398.53 0.700195 398.53 0.700195L333.092 0.700207C333.092 0.700207 334.385 25.9495 333.092 42.9119C328.177 107.386 60.4504 38.3824 52.0658 123.673C37.6201 270.62 681.58 160.559 681.58 235.345C681.58 310.132 -73.59 194.219 6.38451 353.043C74.9064 489.123 775.534 342.784 593.205 442.381C467.822 510.872 -55.6283 415.066 89.3624 566.607C171.652 652.615 346.429 557.548 359.306 646.212C361.87 663.867 359.306 662.981 359.306 662.981H318.925L380.219 724.275L437.368 662.981H397.277Z" fill="url(#paint0_linear_104_142)"/>
<defs>
<linearGradient id="paint0_linear_104_142" x1="-121.388" y1="212.74" x2="862.317" y2="419.407" gradientUnits="userSpaceOnUse">
<stop stop-color="white"/>
<stop offset="1" stop-color="white"/>
</linearGradient>
</defs>
</svg>
