<?xml version="1.0" standalone="no"?>
<!DOCTYPE svg PUBLIC "-//W3C//DTD SVG 20010904//EN"
 "http://www.w3.org/TR/2001/REC-SVG-20010904/DTD/svg10.dtd">
<svg version="1.0" xmlns="http://www.w3.org/2000/svg"
 width="216.000000pt" height="216.000000pt" viewBox="0 0 216.000000 216.000000"
 preserveAspectRatio="xMidYMid meet">
<metadata>
Created by potrace 1.14, written by Peter Selinger 2001-2017
</metadata>
<g transform="translate(0.000000,216.000000) scale(0.100000,-0.100000)"
fill="#000000" stroke="none">
<path d="M919 1685 c-2 -1 -30 -6 -61 -9 -159 -19 -398 -107 -484 -179 -17
-14 -43 -27 -59 -30 -28 -4 -28 -5 -8 -12 24 -8 29 -18 39 -79 3 -21 8 -48 11
-60 3 -11 9 -45 14 -75 15 -83 96 -318 136 -391 89 -164 201 -260 374 -321 43
-16 79 -26 79 -23 0 2 8 0 18 -5 43 -23 233 -33 364 -18 84 9 235 58 313 102
79 44 152 117 183 184 78 168 6 476 -150 646 -126 136 -271 215 -483 260 -32
7 -281 16 -286 10z m-419 -648 c0 -19 66 -153 99 -200 79 -115 180 -190 346
-258 35 -14 187 -39 257 -42 36 -1 62 -5 57 -8 -12 -7 -104 -4 -170 5 -256 35
-435 150 -531 341 -40 78 -81 188 -68 180 5 -3 10 -12 10 -18z"/>
</g>
</svg>
