<svg width="26" height="21" viewBox="0 0 26 21" fill="none" xmlns="http://www.w3.org/2000/svg">
<path d="M8.12407 20.6569C17.8725 20.6569 23.2045 12.8409 23.2045 6.06294C23.2045 5.84094 23.2045 5.61994 23.189 5.39994C24.2263 4.67385 25.1217 3.77482 25.8333 2.74494C24.8661 3.15994 23.8399 3.43198 22.7891 3.55194C23.8956 2.91099 24.7237 1.90276 25.1193 0.71494C24.0789 1.31245 22.9407 1.73351 21.7537 1.95994C20.9546 1.13762 19.8977 0.593108 18.7466 0.410653C17.5955 0.228198 16.4143 0.417976 15.3859 0.95062C14.3574 1.48326 13.5391 2.32908 13.0574 3.35718C12.5757 4.38528 12.4576 5.53834 12.7214 6.63794C10.6142 6.53565 8.55272 6.00568 6.67087 5.08244C4.78902 4.15921 3.12881 2.86334 1.798 1.27894C1.12023 2.4081 0.91264 3.7448 1.2175 5.01688C1.52237 6.28896 2.31676 7.40077 3.43893 8.12594C2.59542 8.10202 1.77028 7.88181 1.03333 7.48394V7.54894C1.03367 8.73316 1.45727 9.88081 2.23229 10.7972C3.00731 11.7137 4.08604 12.3425 5.2855 12.5769C4.5052 12.7829 3.6865 12.813 2.8923 12.6649C3.23112 13.684 3.89053 14.5752 4.77835 15.2138C5.66616 15.8525 6.73801 16.2067 7.84403 16.2269C6.74512 17.0629 5.48669 17.6809 4.14073 18.0457C2.79477 18.4105 1.3877 18.5149 0 18.3529C2.42385 19.8582 5.24409 20.6566 8.12407 20.6529" fill="white"/>
</svg>
